<?xml version="1.0" standalone="no"?>
<!DOCTYPE svg PUBLIC "-//W3C//DTD SVG 20010904//EN"
 "http://www.w3.org/TR/2001/REC-SVG-20010904/DTD/svg10.dtd">
<svg version="1.0" xmlns="http://www.w3.org/2000/svg"
 width="180.000000pt" height="180.000000pt" viewBox="0 0 180.000000 180.000000"
 preserveAspectRatio="xMidYMid meet">

<g transform="translate(0.000000,180.000000) scale(0.100000,-0.100000)"
fill="#000000" stroke="none">
<path d="M862 1775 c-20 -43 -14 -60 34 -94 25 -18 47 -32 48 -30 5 6 66 140
66 145 0 2 -31 4 -68 4 -64 0 -70 -2 -80 -25z"/>
<path d="M290 1480 l-120 -240 -30 15 c-16 8 -31 15 -35 15 -3 0 -5 -57 -5
-126 0 -96 3 -125 13 -122 17 4 206 122 207 128 0 3 -13 14 -30 23 -16 10 -30
23 -30 28 0 21 195 369 207 369 7 0 46 -13 88 -30 42 -16 77 -30 79 -30 10 0
28 62 20 70 -8 7 -167 100 -221 129 -22 11 -26 4 -143 -229z"/>
<path d="M1453 1554 c3 -16 8 -36 12 -45 4 -12 -1 -18 -17 -23 -48 -13 -185
-18 -226 -8 -38 9 -46 8 -67 -11 -48 -44 -164 -190 -158 -200 4 -6 65 -8 170
-3 154 6 263 21 326 45 24 9 29 7 51 -25 l24 -35 111 138 c61 75 107 140 103
144 -4 4 -68 14 -142 23 -74 9 -148 19 -164 22 -27 6 -29 5 -23 -22z"/>
<path d="M671 1114 c-57 -7 -106 -15 -109 -19 -3 -3 4 -19 16 -35 12 -16 22
-32 22 -34 0 -3 -17 -14 -37 -25 -68 -35 -121 -89 -155 -158 -31 -64 -33 -73
-39 -223 -6 -128 -11 -165 -28 -207 -34 -77 -91 -126 -205 -173 l-49 -21 23
-24 c31 -33 64 -32 138 5 122 61 178 157 193 328 16 186 56 278 151 348 39 29
71 30 96 3 l20 -20 19 33 c32 53 123 225 123 232 0 9 -60 6 -179 -10z"/>
<path d="M1145 508 c-3 -11 -25 -251 -25 -279 0 -6 13 -7 33 -4 l34 7 69 -116
69 -115 63 -1 c45 0 62 4 62 13 0 29 -42 134 -85 213 -24 46 -41 85 -37 87 4
3 22 8 41 12 41 9 44 5 -107 114 -72 52 -114 77 -117 69z"/>
</g>
</svg>
